<?xml version="1.0" standalone="no"?>
<!DOCTYPE svg PUBLIC "-//W3C//DTD SVG 20010904//EN"
 "http://www.w3.org/TR/2001/REC-SVG-20010904/DTD/svg10.dtd">
<svg version="1.0" xmlns="http://www.w3.org/2000/svg"
 width="1024.000000pt" height="1024.000000pt" viewBox="0 0 1024.000000 1024.000000"
 preserveAspectRatio="xMidYMid meet">

<g transform="translate(0.000000,1024.000000) scale(0.100000,-0.100000)"
fill="#000000" stroke="none">
<path d="M1994 7226 c-47 -21 -74 -61 -74 -113 0 -55 22 -98 60 -118 28 -14
196 -38 570 -80 80 -9 146 -17 146 -18 1 -1 36 -117 79 -257 43 -140 133 -437
201 -660 69 -223 152 -495 185 -605 33 -110 67 -219 74 -243 11 -33 11 -44 2
-47 -7 -2 -68 -10 -136 -18 -97 -12 -128 -19 -138 -33 -18 -25 -16 -58 5 -77
15 -14 41 -13 295 17 152 18 279 35 282 38 3 3 1 18 -4 34 -6 16 -42 135 -81
264 -39 129 -95 314 -125 410 -52 168 -112 366 -280 920 -160 531 -142 495
-255 510 -86 11 -762 90 -770 90 -3 -1 -19 -7 -36 -14z"/>
<path d="M3920 7176 c0 -16 7 -27 20 -31 16 -5 20 -16 21 -53 1 -42 2 -44 9
-17 13 51 11 61 -15 75 -14 7 -23 15 -21 17 2 3 15 -1 28 -8 21 -11 22 -11 9
4 -7 10 -20 17 -28 17 -8 0 -11 5 -8 10 3 6 1 10 -4 10 -6 0 -11 -11 -11 -24z"/>
<path d="M4300 6999 c0 -14 5 -19 14 -16 8 3 17 1 20 -6 2 -7 5 -4 5 6 1 9 6
17 11 17 6 0 10 5 10 10 0 6 -13 10 -30 10 -24 0 -30 -4 -30 -21z"/>
<path d="M3953 6840 c0 -25 2 -35 4 -22 2 12 2 32 0 45 -2 12 -4 2 -4 -23z"/>
<path d="M5626 6603 c7 -201 12 -228 39 -219 14 4 6 379 -8 387 -5 4 -7 14 -4
23 5 11 1 16 -14 16 -20 0 -20 -3 -13 -207z"/>
<path d="M5728 6803 c28 -2 76 -2 105 0 28 2 5 3 -53 3 -58 0 -81 -1 -52 -3z"/>
<path d="M3957 6784 c-6 -10 9 -42 16 -34 3 3 1 14 -3 24 -3 11 -9 15 -13 10z"/>
<path d="M5737 6764 c-4 -4 -7 -89 -7 -190 0 -151 3 -183 15 -187 8 -4 16 -3
19 1 2 4 6 90 7 192 3 158 1 185 -12 188 -8 1 -18 0 -22 -4z"/>
<path d="M5828 6763 c-2 -4 -1 -89 2 -188 5 -172 6 -180 25 -180 19 0 20 7 20
185 0 182 0 185 -22 188 -11 2 -23 0 -25 -5z"/>
<path d="M6048 6762 c-16 -3 -18 -20 -18 -187 0 -183 3 -200 35 -188 10 3 15
367 5 375 -3 2 -13 3 -22 0z"/>
<path d="M4636 6735 c-7 -26 2 -336 9 -344 2 -2 11 -1 20 3 13 5 15 30 13 183
-3 155 -5 178 -19 181 -11 2 -19 -6 -23 -23z"/>
<path d="M4736 6699 c-3 -34 -6 -115 -6 -181 0 -98 3 -120 15 -125 9 -3 17 -4
19 -2 2 2 5 85 7 184 4 159 2 180 -12 183 -13 2 -17 -10 -23 -59z"/>
<path d="M4835 6750 c-3 -6 -3 -89 1 -185 5 -137 10 -175 20 -175 11 0 14 34
16 165 1 91 2 173 2 182 1 20 -29 30 -39 13z"/>
<path d="M4939 6756 c-2 -2 -3 -85 -2 -183 1 -154 3 -178 17 -181 14 -3 16 18
16 182 0 148 -3 186 -13 186 -8 0 -16 -2 -18 -4z"/>
<path d="M5032 6578 c3 -155 5 -183 18 -183 13 0 15 27 15 180 0 165 -1 180
-18 183 -17 3 -18 -7 -15 -180z"/>
<path d="M5139 6758 c-7 -24 -9 -106 -3 -148 l8 -55 7 50 c11 75 10 155 -1
155 -5 0 -10 -1 -11 -2z"/>
<path d="M5930 6576 l0 -186 25 0 25 0 -2 183 c-3 180 -3 182 -25 185 l-23 3
0 -185z"/>
<path d="M5238 6743 c7 -3 16 -2 19 1 4 3 -2 6 -13 5 -11 0 -14 -3 -6 -6z"/>
<path d="M5253 6695 c0 -22 2 -30 4 -17 2 12 2 30 0 40 -3 9 -5 -1 -4 -23z"/>
<path d="M7508 6698 c-8 -37 -106 -464 -132 -576 -14 -57 -27 -106 -29 -109
-5 -4 -195 -32 -357 -52 -41 -6 -153 -21 -248 -35 -162 -24 -221 -30 -197 -20
6 2 8 41 3 107 -6 92 -5 137 7 273 l3 41 -321 6 c-177 4 -388 7 -470 7 l-147
0 2 -242 3 -243 245 -3 c134 -1 251 0 260 4 8 3 42 7 75 10 33 2 78 8 100 13
l40 9 -55 2 -55 3 45 7 c25 4 40 8 33 8 -17 3 -24 51 -14 92 l9 35 1 -32 c1
-18 6 -33 11 -33 6 0 10 -13 10 -29 0 -32 16 -42 52 -34 16 3 19 2 10 -4 -8
-6 8 -9 45 -6 81 4 56 -4 -67 -21 -58 -9 -177 -27 -265 -41 -526 -83 -555 -86
-555 -55 0 11 -7 20 -15 20 -9 0 -15 -9 -15 -25 0 -14 -6 -25 -12 -25 -7 0
-22 -3 -34 -6 -18 -5 -20 -2 -16 31 4 32 2 36 -14 33 -14 -2 -19 -12 -20 -35
0 -32 -15 -58 -43 -73 -14 -7 -16 0 -13 52 2 56 1 59 -19 56 -21 -3 -22 -8
-20 -78 2 -72 1 -76 -28 -104 l-31 -30 0 102 c0 93 -2 102 -19 102 -16 0 -20
-10 -26 -65 -3 -35 -5 -88 -4 -117 2 -52 -19 -108 -42 -108 -5 0 -10 66 -11
148 -3 139 -4 147 -23 147 -15 0 -21 8 -23 29 -2 18 -11 30 -23 33 -19 5 -20
14 -17 234 l3 229 -180 1 c-99 1 -209 2 -245 3 -69 2 -83 -5 -73 -41 5 -21 2
-23 -31 -23 l-37 0 3 -67 3 -68 38 3 c33 2 38 0 34 -15 -7 -25 -11 -311 -9
-616 2 -203 5 -257 15 -251 8 5 9 4 2 -4 -6 -7 -47 -16 -90 -22 -136 -16 -442
-50 -458 -50 -13 0 -14 33 -10 250 4 222 3 250 -11 250 -9 0 -16 -4 -16 -8 0
-4 -17 -8 -38 -9 -40 -2 -352 -79 -362 -90 -3 -3 10 -3 28 0 18 4 32 2 32 -3
0 -6 -11 -10 -25 -10 -14 0 -25 -5 -25 -10 0 -6 11 -8 25 -4 14 3 25 2 25 -4
0 -11 -105 -26 -120 -17 -5 3 -7 0 -4 -8 3 -9 -4 -22 -18 -31 -21 -15 -23 -15
-30 1 -10 27 -9 43 3 43 5 0 7 -6 3 -12 -4 -7 5 -2 19 11 28 25 34 41 17 41
-5 0 -10 -7 -10 -15 0 -9 -9 -15 -25 -15 -31 0 -31 -12 -5 -99 11 -36 20 -70
22 -76 1 -5 16 -55 34 -110 28 -87 36 -100 56 -102 22 -2 22 -2 -2 6 l-25 9
27 1 c60 2 79 -23 21 -27 -21 -2 -39 -4 -41 -6 -2 -2 4 -29 13 -60 12 -39 21
-56 33 -56 9 0 73 7 142 15 69 8 224 25 345 39 121 14 339 39 485 56 146 17
291 33 323 37 56 6 59 8 170 110 112 105 175 153 199 153 9 0 8 -3 -2 -10 -23
-15 17 -12 150 11 63 10 140 22 170 24 30 3 116 14 190 25 74 10 173 24 220
30 47 7 90 16 97 22 7 5 16 7 20 5 5 -3 71 3 148 14 77 10 164 22 194 25 30 4
66 10 80 14 l26 7 -26 11 c-17 7 -41 7 -65 2 -52 -12 -56 -4 -5 10 33 9 53 7
106 -7 55 -15 67 -15 75 -4 4 8 15 11 24 8 9 -4 91 5 184 19 92 15 190 29 217
34 39 5 43 8 18 9 -22 1 -33 6 -33 16 0 19 6 19 64 -1 26 -9 57 -13 69 -9 25
7 57 11 267 29 115 11 132 14 80 16 -49 1 -59 4 -40 10 16 5 1 7 -40 4 -44 -3
-59 -1 -45 5 21 9 21 9 -25 24 -8 3 5 6 30 7 25 1 68 5 95 10 93 15 -133 -2
-280 -21 -181 -24 -208 -28 -215 -35 -3 -3 21 -4 53 -2 31 1 57 0 57 -4 0 -5
7 -8 15 -8 8 0 15 -4 15 -10 0 -13 -10 -13 -49 1 -17 6 -39 8 -49 3 -9 -4 -20
-8 -24 -8 -3 -1 -10 -4 -14 -8 -4 -5 -17 -8 -28 -9 -12 0 -15 -3 -8 -6 26 -10
10 -18 -41 -20 l-52 -2 35 14 35 13 -65 3 c-42 1 -52 4 -30 6 45 6 64 23 24
23 -28 0 -78 -7 -259 -36 -49 -8 -106 -16 -125 -18 -19 -2 -102 -14 -185 -25
-82 -12 -197 -28 -255 -35 -58 -8 -154 -22 -215 -31 -60 -9 -184 -27 -275 -40
-216 -32 -260 -36 -260 -26 0 4 26 32 57 61 47 44 66 55 107 62 77 12 494 73
846 124 173 24 403 58 510 74 340 51 554 79 652 86 l96 7 6 31 c9 49 163 718
172 749 5 16 -6 17 -144 17 -147 0 -150 0 -154 -22z m-997 -515 l1 -28 8 25
c5 18 8 7 11 -45 3 -38 2 -77 -3 -85 -5 -11 -8 -8 -8 10 -1 22 -2 23 -9 6 -7
-18 -8 -18 -14 -2 -11 28 -8 146 3 146 6 0 10 -12 11 -27z m-1882 -83 c0 -9
-4 -8 -9 5 -5 11 -9 27 -9 35 0 9 4 8 9 -5 5 -11 9 -27 9 -35z m388 -132 c-2
-29 -3 -6 -3 52 0 58 1 81 3 53 2 -29 2 -77 0 -105z m-410 120 c-3 -8 -6 -5
-6 6 -1 11 2 17 5 13 3 -3 4 -12 1 -19z m310 -70 c-2 -13 -4 -3 -4 22 0 25 2
35 4 23 2 -13 2 -33 0 -45z m70 25 c-3 -10 -5 -4 -5 12 0 17 2 24 5 18 2 -7 2
-21 0 -30z m0 -90 c-3 -10 -5 -2 -5 17 0 19 2 27 5 18 2 -10 2 -26 0 -35z
m1253 -4 c0 -10 -4 -19 -10 -19 -5 0 -10 12 -10 26 0 14 4 23 10 19 6 -3 10
-15 10 -26z m181 -14 c7 18 8 18 8 -3 1 -30 -32 -27 -37 3 -3 20 -3 20 9 0 12
-19 12 -19 20 0z m-1297 -151 c3 -8 2 -12 -4 -9 -6 3 -10 10 -10 16 0 14 7 11
14 -7z m2276 -29 c11 -13 8 -15 -16 -17 -16 -1 5 -5 46 -8 l75 -7 -83 1 c-45
1 -82 -2 -82 -5 0 -3 -25 -9 -55 -12 -50 -5 -58 -3 -81 20 -19 19 -21 24 -7
18 10 -4 30 -12 44 -18 34 -13 97 -1 112 23 14 24 30 25 47 5z m-85 -9 c-16
-7 -39 -10 -50 -7 -16 4 -12 7 15 12 57 10 67 9 35 -5z m-655 -86 c8 -5 13
-10 10 -11 -7 -2 -62 -6 -155 -12 -78 -5 -78 -5 -20 4 33 5 78 13 100 18 22 5
42 9 45 10 3 0 12 -4 20 -9z m177 4 c-3 -3 -12 -4 -19 -1 -8 3 -5 6 6 6 11 1
17 -2 13 -5z m-111 -19 c-16 -17 -36 -20 -36 -6 0 8 17 16 43 20 5 0 2 -6 -7
-14z m79 5 c3 -6 -1 -7 -9 -4 -18 7 -21 14 -7 14 6 0 13 -4 16 -10z m105 6 c0
-2 -9 -6 -20 -9 -11 -3 -18 -1 -14 4 5 9 34 13 34 5z m-2910 -21 c0 -8 -7 -15
-15 -15 -16 0 -20 12 -8 23 11 12 23 8 23 -8z m2763 -2 c-7 -2 -19 -2 -25 0
-7 3 -2 5 12 5 14 0 19 -2 13 -5z m-366 -9 c-3 -3 -12 -4 -19 -1 -8 3 -5 6 6
6 11 1 17 -2 13 -5z m273 -4 c-20 -13 -33 -13 -25 0 3 6 14 10 23 10 15 0 15
-2 2 -10z m-2823 -14 c0 -8 -8 -11 -21 -8 -19 5 -19 6 0 13 10 4 19 8 20 8 0
1 1 -5 1 -13z m153 -5 c0 -4 -14 -5 -31 -3 -19 3 -26 7 -19 12 14 8 50 2 50
-9z m2560 -1 c0 -5 -4 -10 -10 -10 -5 0 -10 5 -10 10 0 6 5 10 10 10 6 0 10
-4 10 -10z m-295 -10 c19 -5 6 -6 -35 -3 -36 3 -67 7 -69 9 -8 7 73 2 104 -6z
m-160 -10 c3 -5 -3 -10 -15 -10 -12 0 -18 5 -15 10 3 6 10 10 15 10 5 0 12 -4
15 -10z m-2256 -47 l-3 -48 56 -3 c54 -3 91 -23 74 -40 -4 -4 -13 1 -20 11 -8
9 -26 17 -43 17 -33 0 -43 -17 -43 -77 l0 -33 -70 0 -70 0 0 40 c0 38 2 40 30
40 28 0 30 2 30 40 0 36 3 40 25 40 21 0 25 5 25 30 0 17 3 30 6 30 3 0 4 -21
3 -47z m2406 40 c36 -6 38 -7 15 -14 -36 -10 -140 -11 -140 -1 0 23 46 28 125
15z m-148 -29 c-3 -3 -12 -4 -19 -1 -8 3 -5 6 6 6 11 1 17 -2 13 -5z m-480
-50 c-3 -3 -12 -4 -19 -1 -8 3 -5 6 6 6 11 1 17 -2 13 -5z m-1619 -45 c-3 -8
-7 -3 -11 10 -4 17 -3 21 5 13 5 -5 8 -16 6 -23z m1542 16 c-7 -8 -17 -15 -23
-15 -6 0 -2 7 9 15 25 19 30 19 14 0z m83 8 c-7 -2 -19 -2 -25 0 -7 3 -2 5 12
5 14 0 19 -2 13 -5z m-1703 -23 c12 -8 11 -10 -7 -10 -13 0 -23 5 -23 10 0 13
11 13 30 0z m97 -72 c-2 -13 -4 -3 -4 22 0 25 2 35 4 23 2 -13 2 -33 0 -45z
m-440 0 c-3 -7 -5 -2 -5 12 0 14 2 19 5 13 2 -7 2 -19 0 -25z m1020 -85 c-2
-16 -4 -3 -4 27 0 30 2 43 4 28 2 -16 2 -40 0 -55z m363 67 c0 -9 -97 -7 -106
3 -3 3 19 6 50 6 31 0 56 -4 56 -9z m24 -17 c-32 -27 -35 -28 -28 -8 4 8 10
15 16 15 5 0 7 4 3 9 -3 6 4 9 15 8 19 -1 18 -3 -6 -24z m-50 -48 c-10 -8 -28
-14 -39 -15 -18 0 -17 2 5 14 35 19 60 20 34 1z m-1118 -22 c-10 -11 -37 -12
-30 -2 3 5 12 9 21 9 9 0 13 -3 9 -7z m77 0 c-13 -2 -33 -2 -45 0 -13 2 -3 4
22 4 25 0 35 -2 23 -4z m113 -29 c10 4 14 -3 14 -29 0 -33 -2 -35 -32 -35 -18
0 -43 -3 -55 -6 -14 -4 -23 -2 -23 5 0 6 16 11 35 11 35 0 35 0 36 48 1 26 4
37 6 24 3 -15 10 -22 19 -18z m657 24 c53 5 46 -3 -10 -12 -37 -5 -43 -4 -42
11 0 10 3 13 5 8 2 -6 23 -9 47 -7z m-1076 -55 c-3 -10 -5 -4 -5 12 0 17 2 24
5 18 2 -7 2 -21 0 -30z m178 -23 c25 -11 -1 -11 -35 0 -20 6 -21 8 -5 8 11 0
29 -3 40 -8z m-70 -10 c27 -7 27 -8 5 -8 -14 0 -38 4 -55 8 -27 7 -27 8 -5 8
14 0 39 -4 55 -8z m160 -10 c-67 -13 -150 -22 -144 -15 7 7 113 23 154 23 24
0 22 -2 -10 -8z"/>
<path d="M3846 5455 c4 -8 8 -15 10 -15 2 0 4 7 4 15 0 8 -4 15 -10 15 -5 0
-7 -7 -4 -15z"/>
<path d="M6173 5563 c9 -2 25 -2 35 0 9 3 1 5 -18 5 -19 0 -27 -2 -17 -5z"/>
<path d="M5253 6600 c0 -25 2 -35 4 -22 2 12 2 32 0 45 -2 12 -4 2 -4 -23z"/>
<path d="M3633 6624 c-9 -4 -13 -33 -13 -95 l0 -89 223 0 223 0 -3 77 c-1 48
-7 82 -16 90 -10 10 -63 15 -208 18 -107 2 -200 2 -206 -1z m27 -24 c0 -5 -5
-10 -11 -10 -5 0 -7 5 -4 10 3 6 8 10 11 10 2 0 4 -4 4 -10z"/>
<path d="M5436 6483 c-3 -3 -6 -24 -6 -45 0 -27 4 -38 15 -38 11 0 15 11 15
39 0 38 -10 57 -24 44z"/>
<path d="M5152 6452 c-1 -19 -6 -31 -12 -27 -5 3 -10 -1 -10 -9 0 -21 19 -30
26 -13 3 8 4 30 1 49 l-4 33 -1 -33z"/>
<path d="M5343 6445 c0 -22 2 -30 4 -17 2 12 2 30 0 40 -3 9 -5 -1 -4 -23z"/>
<path d="M5543 6440 c0 -25 2 -35 4 -22 2 12 2 32 0 45 -2 12 -4 2 -4 -23z"/>
<path d="M5128 6108 c-2 -101 -3 -185 -2 -187 2 -2 10 -1 19 2 13 5 15 33 15
187 0 147 -3 180 -14 180 -11 0 -15 -36 -18 -182z"/>
<path d="M5230 6270 c0 -5 5 -10 12 -10 9 0 9 -3 0 -12 -14 -14 -16 -48 -3
-48 5 0 12 -10 14 -22 2 -13 5 5 6 40 1 49 -2 62 -14 62 -8 0 -15 -4 -15 -10z"/>
<path d="M3860 6200 l0 -71 133 3 132 3 0 65 0 65 -132 3 -133 3 0 -71z"/>
<path d="M4237 6263 c-10 -9 -9 -121 1 -127 4 -2 45 -2 90 1 l82 6 0 63 0 64
-83 0 c-46 0 -87 -3 -90 -7z"/>
<path d="M5343 6243 c-7 -2 -12 -17 -12 -31 1 -20 3 -22 6 -8 4 15 7 16 14 5
6 -10 9 -6 9 14 0 15 -1 27 -2 26 -2 0 -9 -3 -15 -6z"/>
<path d="M5435 6160 c-3 -5 -5 -50 -4 -100 1 -69 5 -90 15 -90 11 0 14 20 13
93 0 65 -3 86 -10 72 -8 -17 -9 -16 -6 8 4 28 2 33 -8 17z"/>
<path d="M5231 6058 c-1 -58 -4 -113 -7 -122 -4 -11 0 -16 14 -16 26 0 29 23
22 140 -4 52 -8 86 -9 75 -3 -17 -4 -17 -11 5 -5 16 -8 -13 -9 -82z"/>
<path d="M5535 6100 c-5 -30 -8 -62 -7 -70 1 -8 4 -27 6 -42 2 -16 -1 -28 -5
-28 -5 0 -9 -13 -9 -30 0 -26 4 -30 26 -30 23 0 25 3 19 23 -4 12 -9 65 -12
117 -5 120 -8 128 -18 60z"/>
<path d="M5331 6060 c-3 -89 -2 -142 5 -149 2 -2 9 -1 16 1 9 4 12 25 10 77
-2 39 -8 69 -12 66 -5 -3 -11 16 -13 42 -2 33 -4 22 -6 -37z"/>
<path d="M3583 6022 c-57 -1 -103 -5 -103 -8 0 -3 12 -15 26 -27 19 -17 26
-32 26 -58 0 -20 3 -41 7 -46 4 -7 100 -12 259 -15 l253 -4 -7 45 c-7 55 -27
89 -58 101 -26 10 -249 16 -403 12z"/>
<path d="M5423 5934 c-6 -16 15 -37 29 -28 4 3 8 14 8 25 0 23 -28 26 -37 3z"/>
<path d="M6311 5934 c0 -11 3 -14 6 -6 3 7 2 16 -1 19 -3 4 -6 -2 -5 -13z"/>
<path d="M3850 5765 l0 -55 70 0 70 0 0 55 0 55 -70 0 -70 0 0 -55z"/>
<path d="M7785 5781 c-14 -28 -21 -31 -63 -33 l-47 -1 45 -7 45 -6 -45 -5 -45
-6 47 -1 c46 -2 48 -1 68 39 12 23 19 43 16 46 -2 3 -12 -9 -21 -26z"/>
<path d="M7633 5793 c9 -2 25 -2 35 0 9 3 1 5 -18 5 -19 0 -27 -2 -17 -5z"/>
<path d="M7702 5795 c3 -3 19 -10 36 -14 23 -7 32 -6 36 5 4 11 -5 14 -36 14
-23 0 -39 -2 -36 -5z"/>
<path d="M7578 5773 c7 -3 16 -2 19 1 4 3 -2 6 -13 5 -11 0 -14 -3 -6 -6z"/>
<path d="M7688 5763 c7 -3 16 -2 19 1 4 3 -2 6 -13 5 -11 0 -14 -3 -6 -6z"/>
<path d="M7000 5729 l-35 -6 40 -3 40 -3 -35 -7 c-35 -7 -35 -7 -5 -9 17 0 36
3 43 8 23 14 -9 28 -48 20z"/>
<path d="M3575 5540 c-3 -5 -1 -10 4 -10 6 0 11 5 11 10 0 6 -2 10 -4 10 -3 0
-8 -4 -11 -10z"/>
<path d="M5820 5350 c0 -5 -7 -10 -15 -10 -8 0 -15 -4 -15 -9 0 -5 10 -7 23
-4 20 4 21 3 4 -10 -15 -13 -10 -15 50 -16 l68 -1 -54 30 c-61 34 -61 34 -61
20z"/>
<path d="M6078 5300 c-1 -5 -2 -57 0 -115 3 -96 5 -105 23 -105 16 0 19 7 19
45 l0 45 50 0 c43 0 50 3 50 20 0 17 -7 20 -50 20 -49 0 -50 1 -50 30 l0 30
60 0 c44 0 60 4 60 14 0 7 -10 16 -22 20 -37 9 -136 7 -140 -4z"/>
<path d="M6720 5194 l0 -116 25 4 c14 3 28 1 31 -3 10 -17 45 -9 69 16 19 18
25 35 25 70 0 60 -28 90 -76 82 -33 -6 -34 -5 -34 29 0 27 -4 34 -20 34 -19 0
-20 -7 -20 -116z m108 -31 c-6 -70 -68 -73 -68 -4 0 46 22 66 53 49 13 -7 17
-19 15 -45z"/>
<path d="M5693 5283 c-9 -3 -13 -33 -13 -102 0 -96 0 -97 29 -114 16 -9 31
-17 33 -17 4 0 -2 212 -7 228 -4 12 -20 14 -42 5z"/>
<path d="M5955 5267 c-5 -11 -23 -13 -85 -9 -76 4 -80 4 -80 -17 0 -19 5 -21
65 -21 49 0 65 -3 65 -14 0 -26 -12 -46 -23 -39 -6 4 -32 8 -58 10 -34 2 -49
-1 -53 -12 -4 -12 3 -15 33 -15 46 0 54 -6 40 -32 -8 -15 -18 -19 -40 -16 -28
4 -29 4 -29 -41 0 -35 5 -49 19 -58 17 -11 31 -6 95 30 l76 42 0 97 c0 88 -12
132 -25 95z"/>
<path d="M6294 5236 c-35 -15 -44 -32 -44 -80 0 -64 51 -97 117 -75 46 15 36
34 -18 34 -33 0 -44 4 -47 18 -3 14 4 17 47 17 49 0 51 1 51 28 0 51 -54 80
-106 58z m66 -46 c0 -6 -13 -10 -30 -10 -30 0 -43 24 -17 33 15 5 47 -10 47
-23z"/>
<path d="M6468 5243 l-38 -4 0 -80 c0 -72 2 -79 20 -79 17 0 20 7 20 46 0 55
14 84 41 84 14 0 19 6 17 17 -4 19 -10 21 -60 16z"/>
<path d="M6568 5239 c-28 -16 -21 -31 15 -29 49 3 57 1 57 -14 0 -8 -16 -16
-39 -20 -45 -7 -64 -26 -59 -58 4 -30 42 -46 99 -41 l46 5 -4 66 c-4 51 -10
71 -25 85 -22 19 -64 22 -90 6z m72 -108 c0 -22 -37 -38 -52 -23 -17 17 -1 42
27 42 18 0 25 -5 25 -19z"/>
<path d="M6933 5238 c-42 -20 -51 -99 -16 -140 20 -23 64 -31 97 -18 41 15 27
35 -25 35 -33 0 -44 4 -47 18 -3 14 5 17 52 17 53 0 56 1 56 25 0 14 -11 37
-25 50 -26 26 -56 31 -92 13z m58 -28 c30 -16 23 -30 -16 -30 -37 0 -43 8 -23
28 15 15 15 15 39 2z"/>
<path d="M7113 5243 l-33 -4 0 -80 c0 -72 2 -79 20 -79 16 0 19 8 22 63 3 59
4 62 29 65 30 4 39 -15 39 -85 0 -36 3 -43 20 -43 18 0 20 5 16 72 -6 96 -15
103 -113 91z"/>
<path d="M6465 4926 c-45 -20 -82 -68 -89 -119 -8 -55 10 -134 37 -164 22 -25
80 -48 100 -40 6 3 1 6 -13 7 -14 2 3 6 37 11 75 9 108 29 135 82 68 133 -71
282 -207 223z m-5 -286 c8 -5 11 -10 5 -10 -5 0 -17 5 -25 10 -8 5 -10 10 -5
10 6 0 17 -5 25 -10z"/>
<path d="M6880 4770 c-43 -7 -42 -7 25 -10 39 -1 87 -3 108 -3 39 -1 47 -10
22 -24 -13 -8 -13 -12 -1 -28 13 -18 15 -16 35 25 11 24 21 45 21 47 0 6 -164
0 -210 -7z"/>
<path d="M7324 4673 c-126 -191 -328 -467 -392 -535 l-26 -28 123 0 c214 0
221 8 291 331 28 128 55 252 60 274 5 21 8 41 6 43 -2 1 -30 -37 -62 -85z"/>
<path d="M6653 4596 c-13 -7 -20 -15 -17 -18 6 -7 54 14 54 25 0 10 -10 8 -37
-7z"/>
<path d="M6608 4563 c7 -3 16 -2 19 1 4 3 -2 6 -13 5 -11 0 -14 -3 -6 -6z"/>
<path d="M6508 4523 c7 -3 16 -2 19 1 4 3 -2 6 -13 5 -11 0 -14 -3 -6 -6z"/>
<path d="M6385 4510 c-3 -5 -1 -10 4 -10 6 0 11 5 11 10 0 6 -2 10 -4 10 -3 0
-8 -4 -11 -10z"/>
<path d="M6178 4503 c12 -2 32 -2 45 0 12 2 2 4 -23 4 -25 0 -35 -2 -22 -4z"/>
<path d="M5968 4493 c6 -2 18 -2 25 0 6 3 1 5 -13 5 -14 0 -19 -2 -12 -5z"/>
<path d="M5740 4470 c0 -5 5 -10 10 -10 6 0 10 5 10 10 0 6 -4 10 -10 10 -5 0
-10 -4 -10 -10z"/>
<path d="M6900 4465 c-7 -9 -10 -18 -7 -21 3 -3 10 4 17 15 13 25 8 27 -10 6z"/>
<path d="M5648 4453 c6 -2 18 -2 25 0 6 3 1 5 -13 5 -14 0 -19 -2 -12 -5z"/>
<path d="M5505 4430 c19 -8 103 -14 94 -6 -2 2 -29 6 -59 9 -34 3 -47 2 -35
-3z"/>
<path d="M5438 4423 c7 -3 16 -2 19 1 4 3 -2 6 -13 5 -11 0 -14 -3 -6 -6z"/>
<path d="M5333 4413 c9 -2 23 -2 30 0 6 3 -1 5 -18 5 -16 0 -22 -2 -12 -5z"/>
<path d="M5258 4403 c12 -2 30 -2 40 0 9 3 -1 5 -23 4 -22 0 -30 -2 -17 -4z"/>
<path d="M5170 4392 c0 -4 5 -13 12 -20 9 -9 9 -12 -2 -13 -10 0 -7 -4 5 -9
28 -12 95 -12 95 0 0 6 -18 10 -40 10 -33 0 -40 3 -40 20 0 11 -7 20 -15 20
-8 0 -15 -4 -15 -8z"/>
<path d="M6842 4379 c-19 -30 -8 -34 12 -4 9 14 13 25 9 25 -5 0 -14 -9 -21
-21z"/>
<path d="M4880 4353 c0 -15 58 -21 115 -13 l50 7 -45 2 c-25 1 -62 4 -82 7
-23 4 -38 3 -38 -3z"/>
<path d="M4750 4340 l-55 -7 68 -1 c39 -1 67 2 67 8 0 6 -6 9 -12 8 -7 -1 -38
-4 -68 -8z"/>
<path d="M5098 4343 c7 -3 16 -2 19 1 4 3 -2 6 -13 5 -11 0 -14 -3 -6 -6z"/>
<path d="M3273 4300 c-5 -30 -6 -30 -25 -13 -19 17 -19 17 -15 -7 2 -14 2 -19
0 -12 -3 6 -11 12 -18 12 -8 0 -19 8 -24 18 -6 9 -10 13 -11 7 0 -5 18 -30 40
-55 40 -43 41 -44 73 -31 34 14 85 30 157 52 28 9 94 14 177 14 72 0 129 3
126 8 -2 4 -21 7 -41 7 -29 0 -34 3 -22 11 11 8 7 9 -17 5 -18 -3 -58 -1 -89
5 -43 8 -59 8 -64 -2 -5 -6 -15 -9 -24 -6 -9 4 -16 2 -16 -3 0 -6 10 -11 23
-11 14 -1 10 -4 -13 -9 -19 -4 -48 -11 -64 -15 -20 -5 -27 -4 -22 3 3 6 0 13
-6 16 -7 3 -2 4 12 2 14 -2 34 0 45 5 17 8 17 9 -5 5 -14 -3 -43 2 -65 10 -22
7 -55 14 -73 14 -28 0 -33 -4 -39 -30z m310 3 c-13 -2 -33 -2 -45 0 -13 2 -3
4 22 4 25 0 35 -2 23 -4z"/>
<path d="M3408 4323 c6 -2 18 -2 25 0 6 3 1 5 -13 5 -14 0 -19 -2 -12 -5z"/>
<path d="M4618 4323 c12 -2 30 -2 40 0 9 3 -1 5 -23 4 -22 0 -30 -2 -17 -4z"/>
<path d="M4960 4320 c0 -5 12 -10 28 -10 21 0 24 2 12 10 -20 13 -40 13 -40 0z"/>
<path d="M5280 4300 c0 -11 4 -20 10 -20 5 0 7 6 4 14 -3 8 2 16 13 19 14 4
14 5 -4 6 -17 1 -23 -5 -23 -19z"/>
<path d="M4288 4293 c6 -2 18 -2 25 0 6 3 1 5 -13 5 -14 0 -19 -2 -12 -5z"/>
<path d="M5020 4290 c-13 -8 -12 -10 3 -10 9 0 17 5 17 10 0 12 -1 12 -20 0z"/>
<path d="M5360 4290 c0 -5 11 -10 24 -10 13 0 33 -3 43 -6 14 -4 15 -4 3 4
-25 15 -70 23 -70 12z"/>
<path d="M3778 4283 c7 -3 16 -2 19 1 4 3 -2 6 -13 5 -11 0 -14 -3 -6 -6z"/>
<path d="M3840 4281 c-35 -6 -34 -6 30 -25 88 -27 176 -65 290 -126 188 -100
317 -136 530 -146 167 -8 237 3 315 49 103 59 206 89 325 94 157 7 222 -10
425 -111 212 -106 230 -113 362 -127 266 -28 567 59 706 204 31 33 56 61 55
63 -2 1 -37 -9 -78 -23 -41 -14 -106 -29 -145 -34 -38 -5 -99 -13 -135 -19
-77 -11 -311 -12 -390 0 -97 14 -275 51 -285 60 -5 5 -28 11 -50 15 -22 4 -44
11 -50 15 -5 4 -23 10 -40 13 -16 2 -55 12 -85 21 -275 84 -496 86 -815 7 -41
-10 -99 -21 -216 -41 -70 -12 -250 -12 -284 1 -11 4 -63 12 -115 19 -142 18
-174 26 -165 40 3 4 -4 6 -16 3 -12 -3 -24 -2 -28 3 -3 5 -18 15 -33 21 -21 9
-28 9 -32 0 -3 -9 -5 -9 -5 1 -1 6 -11 12 -23 12 -19 0 -20 2 -8 10 16 10 13
11 -40 1z"/>
<path d="M4968 4273 c7 -3 16 -2 19 1 4 3 -2 6 -13 5 -11 0 -14 -3 -6 -6z"/>
<path d="M4063 4253 c15 -2 37 -2 50 0 12 2 0 4 -28 4 -27 0 -38 -2 -22 -4z"/>
<path d="M4208 4253 c6 -2 18 -2 25 0 6 3 1 5 -13 5 -14 0 -19 -2 -12 -5z"/>
<path d="M4328 4243 c7 -3 16 -2 19 1 4 3 -2 6 -13 5 -11 0 -14 -3 -6 -6z"/>
<path d="M4618 4233 c7 -3 16 -2 19 1 4 3 -2 6 -13 5 -11 0 -14 -3 -6 -6z"/>
<path d="M4720 4220 c0 -5 -7 -10 -17 -10 -9 0 -14 -3 -10 -6 8 -8 47 5 47 17
0 5 -4 9 -10 9 -5 0 -10 -4 -10 -10z"/>
<path d="M6730 4205 c-7 -9 -11 -17 -9 -20 3 -2 10 5 17 15 14 24 10 26 -8 5z"/>
<path d="M5730 4200 c19 -13 30 -13 30 0 0 6 -10 10 -22 10 -19 0 -20 -2 -8
-10z"/>
<path d="M6058 4153 c7 -3 16 -2 19 1 4 3 -2 6 -13 5 -11 0 -14 -3 -6 -6z"/>
<path d="M6670 4145 c-7 -8 -8 -15 -2 -15 5 0 15 7 22 15 7 8 8 15 2 15 -5 0
-15 -7 -22 -15z"/>
<path d="M3522 4041 c19 -70 59 -206 69 -232 9 -23 5 -35 -29 -85 -55 -80 -72
-126 -79 -208 -14 -171 74 -329 227 -406 34 -17 84 -34 111 -37 l49 -6 0 70
c0 62 11 119 35 176 6 14 2 17 -25 17 -42 0 -96 34 -116 72 -20 38 -20 128 0
166 9 17 30 41 48 54 l33 23 1635 5 c1827 6 1678 -1 1715 76 30 64 6 137 -58
171 -28 16 -57 18 -256 15 l-223 -3 -52 -34 c-126 -84 -334 -135 -547 -135
-179 0 -251 17 -599 145 l-75 28 -285 -3 c-157 -1 -361 -3 -455 -3 -93 -1
-313 0 -488 3 l-317 5 -11 32 c-8 27 -21 36 -82 61 -60 25 -134 48 -218 66
-14 3 -15 -1 -7 -33z"/>
<path d="M4159 3457 c-283 -97 -308 -484 -39 -623 48 -25 66 -29 145 -29 76 0
98 4 145 26 70 33 136 99 168 169 21 45 26 70 26 140 0 102 -23 162 -87 228
-54 56 -95 81 -160 98 -73 19 -121 17 -198 -9z m181 -179 c115 -58 114 -220
-1 -279 -32 -16 -54 -20 -87 -16 -56 6 -91 31 -120 88 -42 80 -11 172 72 210
54 24 82 24 136 -3z"/>
<path d="M6504 3471 c-49 -12 -133 -62 -165 -98 -112 -128 -118 -319 -14 -447
24 -30 65 -63 105 -85 61 -34 70 -36 155 -36 71 0 100 5 137 22 67 30 140 102
173 170 24 49 29 71 29 138 0 67 -4 90 -27 140 -30 64 -81 123 -135 157 -65
40 -179 58 -258 39z m153 -191 c70 -31 103 -105 83 -181 -32 -117 -175 -156
-261 -70 -101 100 -33 265 111 270 14 0 44 -8 67 -19z"/>
<path d="M4630 3327 c0 -1 9 -28 20 -60 13 -36 20 -82 20 -127 l0 -70 759 0
758 0 1 73 c1 42 9 96 20 130 l19 57 -798 0 c-440 0 -799 -1 -799 -3z"/>
<path d="M6950 3328 c0 -2 9 -32 20 -66 11 -36 20 -92 20 -128 l0 -64 78 0
c91 0 135 21 158 75 19 45 18 61 -6 110 -28 58 -68 75 -180 75 -50 0 -90 -1
-90 -2z"/>
<path d="M5180 1981 c0 -176 0 -179 22 -184 14 -4 26 -1 31 8 7 14 11 14 30 0
25 -17 70 -20 98 -5 32 17 49 64 49 133 0 54 -4 68 -24 90 -36 39 -73 45 -128
22 -16 -6 -18 0 -18 54 l0 61 -30 0 -30 0 0 -179z m146 15 c15 -11 19 -27 19
-71 0 -57 -17 -85 -52 -85 -51 0 -76 123 -31 154 28 20 39 20 64 2z"/>
<path d="M4180 1975 l0 -175 30 0 c33 0 33 0 30 88 l-1 52 80 0 81 0 0 30 0
29 -77 3 -78 3 -3 43 -3 42 96 0 95 0 0 30 0 30 -125 0 -125 0 0 -175z"/>
<path d="M4520 2044 c-45 -18 -60 -44 -67 -108 -5 -59 18 -113 58 -133 47 -25
143 -11 156 23 10 27 -11 37 -51 23 -44 -16 -85 -4 -97 29 -8 22 -7 22 76 22
l85 0 0 43 c0 51 -21 84 -66 103 -41 17 -50 17 -94 -2z m81 -55 c19 -19 23
-41 6 -40 -4 1 -25 1 -47 1 -44 0 -52 16 -24 44 21 21 40 20 65 -5z"/>
<path d="M4836 2053 c-4 -5 -29 -8 -54 -8 l-47 0 -3 -121 -3 -122 28 -5 c15
-3 31 -3 35 0 5 2 8 45 8 94 0 63 4 91 13 93 6 3 24 7 40 10 22 5 27 12 27 36
0 22 -5 30 -18 30 -10 0 -22 -3 -26 -7z"/>
<path d="M4952 2045 c-23 -10 -32 -20 -30 -32 4 -19 28 -21 79 -8 18 5 31 1
43 -10 26 -27 14 -40 -43 -45 -91 -10 -131 -83 -74 -136 23 -22 34 -25 68 -20
22 4 59 6 83 6 l42 -1 0 100 c0 90 -2 103 -23 126 -28 33 -96 43 -145 20z
m106 -158 c5 -28 -17 -47 -54 -47 -19 0 -34 2 -34 4 0 2 -3 11 -6 19 -3 8 2
22 12 31 22 23 78 18 82 -7z"/>
<path d="M5525 2051 c-41 -18 -68 -59 -73 -111 -9 -100 41 -156 134 -148 65 6
104 33 80 57 -13 12 -21 13 -56 1 -52 -17 -93 -2 -88 33 3 21 7 22 80 19 42
-2 78 1 81 5 11 18 -12 97 -35 120 -27 27 -89 39 -123 24z m73 -57 c39 -27 28
-44 -28 -44 -54 0 -65 14 -34 44 19 20 34 20 62 0z"/>
<path d="M5820 2051 c-8 -6 -32 -8 -52 -4 l-38 6 0 -125 c0 -69 2 -127 5 -130
3 -3 17 -3 30 0 24 4 25 7 25 91 0 97 7 111 56 111 40 0 44 -10 44 -116 l0
-84 30 0 30 0 0 104 c0 84 -3 108 -18 126 -19 24 -88 37 -112 21z"/>
<path d="M6105 1949 c-4 -6 -4 -13 -1 -16 3 -4 6 -1 6 5 0 6 8 13 18 15 15 4
15 5 0 6 -9 0 -20 -4 -23 -10z"/>
<path d="M6150 1956 c0 -2 9 -6 20 -9 11 -3 18 -1 14 4 -5 9 -34 13 -34 5z"/>
<path d="M6112 1904 c9 -9 21 -15 27 -13 6 2 -2 10 -17 17 -25 11 -25 11 -10
-4z"/>
</g>
</svg>
